ISO-10303-21;
HEADER;
FILE_DESCRIPTION (( 'STEP AP203' ),
    '1' );
FILE_NAME ('9307K12_Buna-N Rubber Grommets.STEP',
    '2024-02-22T15:25:23',
    ( 'Administrator' ),
    ( 'Managed by Terraform' ),
    'SwSTEP 2.0',
    'SolidWorks 2017',
    '' );
FILE_SCHEMA (( 'CONFIG_CONTROL_DESIGN' ));
ENDSEC;

DATA;
#1 = DIRECTION ( 'NONE',  ( -0.0000000000000000000, -1.000000000000000000, -1.836970198721029900E-016 ) ) ;
#2 = AXIS2_PLACEMENT_3D ( 'NONE', #453, #109, #621 ) ;
#3 = TOROIDAL_SURFACE ( 'NONE', #723, 0.1562499999999999400, 0.06250000000000001400 ) ;
#4 = VERTEX_POINT ( 'NONE', #86 ) ;
#5 = DIRECTION ( 'NONE',  ( 0.0000000000000000000, -1.576066150190921600E-016, 1.000000000000000000 ) ) ;
#6 = VERTEX_POINT ( 'NONE', #194 ) ;
#7 = DIRECTION ( 'NONE',  ( 0.0000000000000000000, 1.951804284204048100E-016, -1.000000000000000000 ) ) ;
#8 = CC_DESIGN_APPROVAL ( #15, ( #236 ) ) ;
#9 = DIRECTION ( 'NONE',  ( -0.0000000000000000000, -1.000000000000000000, -1.836970198721029900E-016 ) ) ;
#10 = CIRCLE ( 'NONE', #158, 0.09374999999999998600 ) ;
#11 = TOROIDAL_SURFACE ( 'NONE', #285, 0.1562499999999999400, 0.06250000000000001400 ) ;
#12 = ORIENTED_EDGE ( 'NONE', *, *, #465, .T. ) ;
#13 = DIRECTION ( 'NONE',  ( -0.0000000000000000000, -1.000000000000000000, -1.836970198721029900E-016 ) ) ;
#14 = EDGE_CURVE ( 'NONE', #102, #384, #394, .T. ) ;
#15 = APPROVAL ( #212, 'UNSPECIFIED' ) ;
#16 = DIRECTION ( 'NONE',  ( 0.0000000000000000000, 1.773927268613157900E-016, -1.000000000000000000 ) ) ;
#17 = CARTESIAN_POINT ( 'NONE',  ( 0.0000000000000000000, -0.06249999999999999300, 0.1562499999999999700 ) ) ;
#18 = ORGANIZATION ( 'UNSPECIFIED', 'UNSPECIFIED', '' ) ;
#19 = AXIS2_PLACEMENT_3D ( 'NONE', #122, #564, #458 ) ;
#20 = EDGE_LOOP ( 'NONE', ( #674, #406, #496, #328 ) ) ;
#21 = ORIENTED_EDGE ( 'NONE', *, *, #599, .T. ) ;
#22 = DIRECTION ( 'NONE',  ( -0.0000000000000000000, -1.000000000000000000, -1.836970198721029900E-016 ) ) ;
#23 = ORIENTED_EDGE ( 'NONE', *, *, #27, .F. ) ;
#24 = AXIS2_PLACEMENT_3D ( 'NONE', #230, #510, #167 ) ;
#25 = DIRECTION ( 'NONE',  ( -1.224646799147353500E-016, 0.0000000000000000000, -1.000000000000000000 ) ) ;
#26 = CARTESIAN_POINT ( 'NONE',  ( 2.647660589202100900E-017, 0.06500000000000007200, -0.2161978940414089100 ) ) ;
#27 = EDGE_CURVE ( 'NONE', #6, #640, #29, .T. ) ;
#28 = FACE_BOUND ( 'NONE', #672, .T. ) ;
#29 = LINE ( 'NONE', #430, #542 ) ;
#30 = AXIS2_PLACEMENT_3D ( 'NONE', #694, #274, #25 ) ;
#31 = ORIENTED_EDGE ( 'NONE', *, *, #95, .T. ) ;
#32 = CARTESIAN_POINT ( 'NONE',  ( 0.0000000000000000000, -0.1250000000000000000, -1.530808498934192100E-017 ) ) ;
#33 = CARTESIAN_POINT ( 'NONE',  ( 0.0000000000000000000, 0.1225000000000000400, -0.09624999999999996100 ) ) ;
#34 = DIRECTION ( 'NONE',  ( 0.0000000000000000000, 0.0000000000000000000, 1.000000000000000000 ) ) ;
#35 = DIRECTION ( 'NONE',  ( 0.0000000000000000000, 1.821231995776175700E-016, -1.000000000000000000 ) ) ;
#36 = EDGE_CURVE ( 'NONE', #6, #200, #72, .T. ) ;
#37 = ORIENTED_EDGE ( 'NONE', *, *, #180, .T. ) ;
#38 = PERSON_AND_ORGANIZATION_ROLE ( 'creator' ) ;
#39 = ORIENTED_EDGE ( 'NONE', *, *, #54, .F. ) ;
#40 = EDGE_LOOP ( 'NONE', ( #451, #267 ) ) ;
#41 = DATE_TIME_ROLE ( 'classification_date' ) ;
#42 = CC_DESIGN_DATE_AND_TIME_ASSIGNMENT ( #126, #41, ( #91 ) ) ;
#43 = DIRECTION ( 'NONE',  ( 0.0000000000000000000, -1.836970198721029900E-016, 1.000000000000000000 ) ) ;
#44 = DIRECTION ( 'NONE',  ( -0.0000000000000000000, -1.000000000000000000, -1.836970198721029900E-016 ) ) ;
#45 = CIRCLE ( 'NONE', #166, 0.2186957229598008900 ) ;
#46 = VECTOR ( 'NONE', #518, 39.37007874015748100 ) ;
#47 = ORIENTED_EDGE ( 'NONE', *, *, #679, .T. ) ;
#48 = AXIS2_PLACEMENT_3D ( 'NONE', #57, #112, #506 ) ;
#49 = CARTESIAN_POINT ( 'NONE',  ( 0.0000000000000000000, 0.1250000000000000000, 0.09375000000000001400 ) ) ;
#50 = AXIS2_PLACEMENT_3D ( 'NONE', #480, #649, #315 ) ;
#51 = ORIENTED_EDGE ( 'NONE', *, *, #455, .F. ) ;
#52 = EDGE_LOOP ( 'NONE', ( #727, #389, #188, #577 ) ) ;
#53 = CARTESIAN_POINT ( 'NONE',  ( 0.0000000000000000000, 0.06510416666666669900, 3.462647757672022400E-017 ) ) ;
#54 = EDGE_CURVE ( 'NONE', #347, #102, #685, .T. ) ;
#55 = CARTESIAN_POINT ( 'NONE',  ( 0.0000000000000000000, -0.06510416666666663000, -4.783776559169319600E-019 ) ) ;
#56 = DIRECTION ( 'NONE',  ( -1.000000000000000000, 0.0000000000000000000, 0.0000000000000000000 ) ) ;
#57 = CARTESIAN_POINT ( 'NONE',  ( 0.0000000000000000000, 0.06250000000000002800, 1.913510623667739800E-017 ) ) ;
#58 = CARTESIAN_POINT ( 'NONE',  ( 1.913510623667738500E-017, -0.1250000000000001400, 0.1562499999999999400 ) ) ;
#59 = AXIS2_PLACEMENT_3D ( 'NONE', #224, #693, #409 ) ;
#60 = ADVANCED_FACE ( 'NONE', ( #63 ), #138, .T. ) ;
#61 = DIRECTION ( 'NONE',  ( 0.0000000000000000000, 2.185478394931411300E-016, -1.000000000000000000 ) ) ;
#62 = DIRECTION ( 'NONE',  ( -0.0000000000000000000, -1.000000000000000000, -1.836970198721029900E-016 ) ) ;
#63 = FACE_OUTER_BOUND ( 'NONE', #611, .T. ) ;
#64 = ORIENTED_EDGE ( 'NONE', *, *, #388, .F. ) ;
#65 = VERTEX_POINT ( 'NONE', #538 ) ;
#66 = ADVANCED_FACE ( 'NONE', ( #699, #117 ), #479, .F. ) ;
#67 = AXIS2_PLACEMENT_3D ( 'NONE', #17, #369, #473 ) ;
#68 = ADVANCED_FACE ( 'NONE', ( #317 ), #242, .T. ) ;
#69 = DIRECTION ( 'NONE',  ( 1.224646799147354400E-016, 0.0000000000000000000, -1.000000000000000000 ) ) ;
#70 = PERSON_AND_ORGANIZATION ( #299, #18 ) ;
#71 = CARTESIAN_POINT ( 'NONE',  ( 0.0000000000000000000, -0.06249999999999996500, -3.827021247335475700E-018 ) ) ;
#72 = CIRCLE ( 'NONE', #569, 0.002500000000000007400 ) ;
#73 = VERTEX_POINT ( 'NONE', #710 ) ;
#74 = ORIENTED_EDGE ( 'NONE', *, *, #195, .F. ) ;
#75 = CARTESIAN_POINT ( 'NONE',  ( 0.0000000000000000000, -0.1250000000000000000, -1.530808498934192100E-017 ) ) ;
#76 = EDGE_CURVE ( 'NONE', #223, #110, #414, .T. ) ;
#77 = DIRECTION ( 'NONE',  ( -0.0000000000000000000, -1.000000000000000000, -1.836970198721029900E-016 ) ) ;
#78 = EDGE_CURVE ( 'NONE', #475, #73, #106, .T. ) ;
#79 = CARTESIAN_POINT ( 'NONE',  ( 0.0000000000000000000, 0.06250000000000000000, 0.1624999999999999800 ) ) ;
#80 = APPROVAL_PERSON_ORGANIZATION ( #696, #622, #715 ) ;
#81 = FACE_OUTER_BOUND ( 'NONE', #215, .T. ) ;
#82 = CC_DESIGN_PERSON_AND_ORGANIZATION_ASSIGNMENT ( #221, #38, ( #236 ) ) ;
#83 = CIRCLE ( 'NONE', #461, 0.1624999999999999500 ) ;
#84 = ORIENTED_EDGE ( 'NONE', *, *, #260, .T. ) ;
#85 = CARTESIAN_POINT ( 'NONE',  ( 0.0000000000000000000, -0.1225000000000000000, -0.09375000000000001400 ) ) ;
#86 = CARTESIAN_POINT ( 'NONE',  ( 0.0000000000000000000, 0.06510416666666674100, -0.2186957229598009400 ) ) ;
#87 = DIRECTION ( 'NONE',  ( -1.224646799147354400E-016, 0.0000000000000000000, -1.000000000000000000 ) ) ;
#88 = AXIS2_PLACEMENT_3D ( 'NONE', #165, #623, #114 ) ;
#89 = VECTOR ( 'NONE', #645, 39.37007874015748100 ) ;
#90 = DIRECTION ( 'NONE',  ( 1.000000000000000000, 2.249639673992786700E-032, -1.224646799147353200E-016 ) ) ;
#91 = SECURITY_CLASSIFICATION ( '', '', #502 ) ;
#92 = ORIENTED_EDGE ( 'NONE', *, *, #54, .T. ) ;
#93 = VERTEX_POINT ( 'NONE', #151 ) ;
#94 = DIRECTION ( 'NONE',  ( 1.000000000000000000, -2.249639673992786700E-032, 1.224646799147353200E-016 ) ) ;
#95 = EDGE_CURVE ( 'NONE', #561, #228, #334, .T. ) ;
#96 = CARTESIAN_POINT ( 'NONE',  ( 0.0000000000000000000, -0.1250000000000000300, -1.530808498934192100E-017 ) ) ;
#97 = COORDINATED_UNIVERSAL_TIME_OFFSET ( 6, 0, .BEHIND. ) ;
#98 = CIRCLE ( 'NONE', #632, 0.1562499999999999400 ) ;
#99 = EDGE_CURVE ( 'NONE', #73, #475, #688, .T. ) ;
#100 = TOROIDAL_SURFACE ( 'NONE', #529, 0.1562499999999999700, 0.06250000000000002800 ) ;
#101 =( CONVERSION_BASED_UNIT ( 'INCH', #697 ) LENGTH_UNIT ( ) NAMED_UNIT ( #127 ) );
#102 = VERTEX_POINT ( 'NONE', #513 ) ;
#103 = APPROVAL_ROLE ( '' ) ;
#104 =( GEOMETRIC_REPRESENTATION_CONTEXT ( 3 ) GLOBAL_UNCERTAINTY_ASSIGNED_CONTEXT ( ( #149 ) ) GLOBAL_UNIT_ASSIGNED_CONTEXT ( ( #101, #216, #504 ) ) REPRESENTATION_CONTEXT ( 'NONE', 'WORKASPACE' ) );
#105 = APPROVAL_PERSON_ORGANIZATION ( #412, #15, #103 ) ;
#106 = CIRCLE ( 'NONE', #153, 0.1624999999999999500 ) ;
#107 = CARTESIAN_POINT ( 'NONE',  ( 1.178722544179327600E-017, -0.1250000000000000300, 0.09624999999999997400 ) ) ;
#108 = VERTEX_POINT ( 'NONE', #176 ) ;
#109 = DIRECTION ( 'NONE',  ( 0.0000000000000000000, 1.000000000000000000, 1.836970198721029900E-016 ) ) ;
#110 = VERTEX_POINT ( 'NONE', #403 ) ;
#111 = DIRECTION ( 'NONE',  ( 0.0000000000000000000, 0.0000000000000000000, 1.000000000000000000 ) ) ;
#112 = DIRECTION ( 'NONE',  ( 0.0000000000000000000, 1.000000000000000000, 1.836970198721029900E-016 ) ) ;
#113 = AXIS2_PLACEMENT_3D ( 'NONE', #353, #618, #61 ) ;
#114 = DIRECTION ( 'NONE',  ( -1.224646799147346800E-016, 0.0000000000000000000, -1.000000000000000000 ) ) ;
#115 = CALENDAR_DATE ( 2024, 22, 2 ) ;
#116 = DIRECTION ( 'NONE',  ( 0.0000000000000000000, 1.000000000000000000, 1.836970198721029900E-016 ) ) ;
#117 = FACE_BOUND ( 'NONE', #539, .T. ) ;
#118 = EDGE_CURVE ( 'NONE', #327, #65, #574, .T. ) ;
#119 = ORIENTED_EDGE ( 'NONE', *, *, #260, .F. ) ;
#120 = ADVANCED_FACE ( 'NONE', ( #725 ), #553, .F. ) ;
#121 = APPROVAL ( #722, 'UNSPECIFIED' ) ;
#122 = CARTESIAN_POINT ( 'NONE',  ( 0.0000000000000000000, 0.05625000000000001500, 1.798699986247675200E-017 ) ) ;
#123 = DIRECTION ( 'NONE',  ( -0.0000000000000000000, -1.000000000000000000, -1.836970198721029900E-016 ) ) ;
#124 = DIRECTION ( 'NONE',  ( -0.0000000000000000000, -1.000000000000000000, -1.836970198721029900E-016 ) ) ;
#125 = ADVANCED_FACE ( 'NONE', ( #437 ), #657, .T. ) ;
#126 = DATE_AND_TIME ( #617, #705 ) ;
#127 = DIMENSIONAL_EXPONENTS ( 1.000000000000000000, 0.0000000000000000000, 0.0000000000000000000, 0.0000000000000000000, 0.0000000000000000000, 0.0000000000000000000, 0.0000000000000000000 ) ;
#128 = FACE_BOUND ( 'NONE', #40, .T. ) ;
#129 = ORIENTED_EDGE ( 'NONE', *, *, #300, .T. ) ;
#130 = EDGE_LOOP ( 'NONE', ( #266, #225, #37, #587 ) ) ;
#131 = PLANE ( 'NONE',  #67 ) ;
#132 = EDGE_CURVE ( 'NONE', #318, #6, #671, .T. ) ;
#133 = AXIS2_PLACEMENT_3D ( 'NONE', #26, #582, #69 ) ;
#134 = DIRECTION ( 'NONE',  ( 0.0000000000000000000, 1.576066150190921600E-016, -1.000000000000000000 ) ) ;
#135 = CARTESIAN_POINT ( 'NONE',  ( 0.0000000000000000000, 0.1225000000000000300, 3.015692742900357700E-017 ) ) ;
#136 = EDGE_CURVE ( 'NONE', #318, #474, #516, .T. ) ;
#137 = CIRCLE ( 'NONE', #598, 0.09625000000000000200 ) ;
#138 = TOROIDAL_SURFACE ( 'NONE', #350, 0.09625000000000000200, 0.002500000000000000500 ) ;
#139 = ORIENTED_EDGE ( 'NONE', *, *, #419, .T. ) ;
#140 = AXIS2_PLACEMENT_3D ( 'NONE', #352, #454, #111 ) ;
#141 = DIRECTION ( 'NONE',  ( -0.0000000000000000000, -1.000000000000000000, -1.836970198721029900E-016 ) ) ;
#142 = CARTESIAN_POINT ( 'NONE',  ( 0.0000000000000000000, -0.1250000000000000300, 0.09375000000000001400 ) ) ;
#143 = AXIS2_PLACEMENT_3D ( 'NONE', #588, #420, #703 ) ;
#144 = ORIENTED_EDGE ( 'NONE', *, *, #195, .T. ) ;
#145 = ORIENTED_EDGE ( 'NONE', *, *, #170, .F. ) ;
#146 = DIRECTION ( 'NONE',  ( -0.0000000000000000000, -1.000000000000000000, -1.836970198721029900E-016 ) ) ;
#147 = ORIENTED_EDGE ( 'NONE', *, *, #78, .F. ) ;
#148 = DIRECTION ( 'NONE',  ( 0.0000000000000000000, -1.000000000000000000, -1.836970198721030200E-016 ) ) ;
#149 = UNCERTAINTY_MEASURE_WITH_UNIT (LENGTH_MEASURE( 1.000000000000000100E-005 ), #101, 'distance_accuracy_value', 'NONE');
#150 = CARTESIAN_POINT ( 'NONE',  ( 0.0000000000000000000, -0.06249999999999995100, -0.1562499999999999700 ) ) ;
#151 = CARTESIAN_POINT ( 'NONE',  ( 2.678250171099365200E-017, -0.06510416666666667100, 0.2186957229598009700 ) ) ;
#152 = DIRECTION ( 'NONE',  ( -0.0000000000000000000, -1.000000000000000000, -1.836970198721029900E-016 ) ) ;
#153 = AXIS2_PLACEMENT_3D ( 'NONE', #654, #116, #5 ) ;
#154 = FACE_OUTER_BOUND ( 'NONE', #639, .T. ) ;
#155 = EDGE_LOOP ( 'NONE', ( #64, #604, #407, #337 ) ) ;
#156 = ORIENTED_EDGE ( 'NONE', *, *, #136, .F. ) ;
#157 = PERSON_AND_ORGANIZATION_ROLE ( 'creator' ) ;
#158 = AXIS2_PLACEMENT_3D ( 'NONE', #422, #580, #308 ) ;
#159 = DIRECTION ( 'NONE',  ( 0.0000000000000000000, 1.821231995776175700E-016, -1.000000000000000000 ) ) ;
#160 = TOROIDAL_SURFACE ( 'NONE', #402, 0.2161978940414089900, 0.002500000000000000500 ) ;
#161 = TOROIDAL_SURFACE ( 'NONE', #175, 0.1624999999999999500, 0.006250000000000000300 ) ;
#162 = PERSON_AND_ORGANIZATION_ROLE ( 'design_owner' ) ;
#163 = EDGE_LOOP ( 'NONE', ( #708, #147, #493, #554 ) ) ;
#164 = EDGE_CURVE ( 'NONE', #718, #578, #265, .T. ) ;
#165 = CARTESIAN_POINT ( 'NONE',  ( 1.178722544179327300E-017, 0.1225000000000000100, 0.09625000000000003000 ) ) ;
#166 = AXIS2_PLACEMENT_3D ( 'NONE', #199, #201, #490 ) ;
#167 = DIRECTION ( 'NONE',  ( 0.0000000000000000000, 1.821231995776175700E-016, -1.000000000000000000 ) ) ;
#168 = CIRCLE ( 'NONE', #324, 0.006250000000000001200 ) ;
#169 = ORIENTED_EDGE ( 'NONE', *, *, #132, .F. ) ;
#170 = EDGE_CURVE ( 'NONE', #93, #415, #507, .T. ) ;
#171 = DIRECTION ( 'NONE',  ( 0.0000000000000000000, -1.951804284204048900E-016, 1.000000000000000000 ) ) ;
#172 = EDGE_LOOP ( 'NONE', ( #245, #659, #244, #349 ) ) ;
#173 = CARTESIAN_POINT ( 'NONE',  ( 0.0000000000000000000, -0.06249999999999997200, 0.0000000000000000000 ) ) ;
#174 = ADVANCED_FACE ( 'NONE', ( #277 ), #161, .F. ) ;
#175 = AXIS2_PLACEMENT_3D ( 'NONE', #625, #571, #464 ) ;
#176 = CARTESIAN_POINT ( 'NONE',  ( 2.678250171099366100E-017, 0.06510416666666665700, 0.2186957229598010300 ) ) ;
#177 = ADVANCED_FACE ( 'NONE', ( #380 ), #11, .T. ) ;
#178 = FACE_OUTER_BOUND ( 'NONE', #208, .T. ) ;
#179 = FACE_BOUND ( 'NONE', #709, .T. ) ;
#180 = EDGE_CURVE ( 'NONE', #108, #4, #524, .T. ) ;
#181 = ORIENTED_EDGE ( 'NONE', *, *, #533, .F. ) ;
#182 = ADVANCED_FACE ( 'NONE', ( #179, #570 ), #357, .F. ) ;
#183 = AXIS2_PLACEMENT_3D ( 'NONE', #298, #124, #250 ) ;
#184 = ADVANCED_FACE ( 'NONE', ( #444 ), #282, .F. ) ;
#185 = CARTESIAN_POINT ( 'NONE',  ( 2.662955380150734000E-017, -0.06250000000000001400, 0.2161978940414089900 ) ) ;
#186 = CIRCLE ( 'NONE', #413, 0.1562499999999999700 ) ;
#187 = ORIENTED_EDGE ( 'NONE', *, *, #300, .F. ) ;
#188 = ORIENTED_EDGE ( 'NONE', *, *, #638, .F. ) ;
#189 = CARTESIAN_POINT ( 'NONE',  ( 0.0000000000000000000, -0.1250000000000000300, -1.530808498934192100E-017 ) ) ;
#190 = AXIS2_PLACEMENT_3D ( 'NONE', #313, #322, #205 ) ;
#191 = ORIENTED_EDGE ( 'NONE', *, *, #465, .F. ) ;
#192 = ADVANCED_FACE ( 'NONE', ( #128, #293 ), #631, .T. ) ;
#193 = DIRECTION ( 'NONE',  ( 0.0000000000000000000, -1.836970198721029900E-016, 1.000000000000000000 ) ) ;
#194 = CARTESIAN_POINT ( 'NONE',  ( 0.0000000000000000000, 0.1225000000000000400, -0.09374999999999995800 ) ) ;
#195 = EDGE_CURVE ( 'NONE', #446, #384, #425, .T. ) ;
#196 = CARTESIAN_POINT ( 'NONE',  ( 0.0000000000000000000, -0.06510416666666658800, -0.2186957229598009700 ) ) ;
#197 = CARTESIAN_POINT ( 'NONE',  ( 0.0000000000000000000, 0.06249999999999999300, 0.2187500000000000000 ) ) ;
#198 = AXIS2_PLACEMENT_3D ( 'NONE', #150, #546, #428 ) ;
#199 = CARTESIAN_POINT ( 'NONE',  ( 0.0000000000000000000, -0.06510416666666663000, -4.783776559169319600E-019 ) ) ;
#200 = VERTEX_POINT ( 'NONE', #396 ) ;
#201 = DIRECTION ( 'NONE',  ( -0.0000000000000000000, -1.000000000000000000, -1.836970198721029900E-016 ) ) ;
#202 = DIRECTION ( 'NONE',  ( 0.0000000000000000000, 2.185478394931411300E-016, -1.000000000000000000 ) ) ;
#203 = DIRECTION ( 'NONE',  ( 0.0000000000000000000, -1.836970198721030200E-016, 1.000000000000000000 ) ) ;
#204 = AXIS2_PLACEMENT_3D ( 'NONE', #55, #9, #171 ) ;
#205 = DIRECTION ( 'NONE',  ( 0.0000000000000000000, -1.836970198721029900E-016, 1.000000000000000000 ) ) ;
#206 = AXIS2_PLACEMENT_3D ( 'NONE', #339, #666, #159 ) ;
#207 = CIRCLE ( 'NONE', #487, 0.002500000000000007400 ) ;
#208 = EDGE_LOOP ( 'NONE', ( #494, #305, #485, #84 ) ) ;
#209 = CARTESIAN_POINT ( 'NONE',  ( 0.0000000000000000000, 0.06499999999999998800, 0.2161978940414089900 ) ) ;
#210 = ORIENTED_EDGE ( 'NONE', *, *, #676, .F. ) ;
#211 = EDGE_CURVE ( 'NONE', #718, #4, #706, .T. ) ;
#212 = APPROVAL_STATUS ( 'not_yet_approved' ) ;
#213 = AXIS2_PLACEMENT_3D ( 'NONE', #227, #289, #401 ) ;
#214 = CIRCLE ( 'NONE', #385, 0.09625000000000000200 ) ;
#215 = EDGE_LOOP ( 'NONE', ( #348, #144, #525, #39 ) ) ;
#216 =( NAMED_UNIT ( * ) PLANE_ANGLE_UNIT ( ) SI_UNIT ( $, .RADIAN. ) );
#217 = ORIENTED_EDGE ( 'NONE', *, *, #714, .T. ) ;
#218 = EDGE_CURVE ( 'NONE', #578, #108, #537, .T. ) ;
#219 = AXIS2_PLACEMENT_3D ( 'NONE', #484, #264, #597 ) ;
#220 = ADVANCED_FACE ( 'NONE', ( #468 ), #100, .T. ) ;
#221 = PERSON_AND_ORGANIZATION ( #299, #18 ) ;
#222 = DIRECTION ( 'NONE',  ( 0.0000000000000000000, 1.000000000000000000, 1.836970198721029900E-016 ) ) ;
#223 = VERTEX_POINT ( 'NONE', #107 ) ;
#224 = CARTESIAN_POINT ( 'NONE',  ( 0.0000000000000000000, -0.05624999999999996700, -2.678914873134832300E-018 ) ) ;
#225 = ORIENTED_EDGE ( 'NONE', *, *, #218, .T. ) ;
#226 = VERTEX_POINT ( 'NONE', #565 ) ;
#227 = CARTESIAN_POINT ( 'NONE',  ( 0.0000000000000000000, -0.1225000000000000100, -1.484884243966166500E-017 ) ) ;
#228 = VERTEX_POINT ( 'NONE', #405 ) ;
#229 = AXIS2_PLACEMENT_3D ( 'NONE', #142, #148, #607 ) ;
#230 = CARTESIAN_POINT ( 'NONE',  ( 0.0000000000000000000, 0.1225000000000000300, 3.015692742900357700E-017 ) ) ;
#231 = DIRECTION ( 'NONE',  ( -0.0000000000000000000, -1.000000000000000000, -1.836970198721029900E-016 ) ) ;
#232 = LOCAL_TIME ( 9, 25, 23.00000000000000000, #241 ) ;
#233 = EDGE_CURVE ( 'NONE', #384, #102, #235, .T. ) ;
#234 = CYLINDRICAL_SURFACE ( 'NONE', #445, 0.09374999999999998600 ) ;
#235 = CIRCLE ( 'NONE', #508, 0.1562499999999999400 ) ;
#236 = PRODUCT_DEFINITION_FORMATION_WITH_SPECIFIED_SOURCE ( 'ANY', '', #575, .NOT_KNOWN. ) ;
#237 = DIRECTION ( 'NONE',  ( 0.0000000000000000000, 1.974354333573134200E-016, -1.000000000000000000 ) ) ;
#238 = ORIENTED_EDGE ( 'NONE', *, *, #638, .T. ) ;
#239 = ORIENTED_EDGE ( 'NONE', *, *, #455, .T. ) ;
#240 = ADVANCED_FACE ( 'NONE', ( #255 ), #665, .T. ) ;
#241 = COORDINATED_UNIVERSAL_TIME_OFFSET ( 6, 0, .BEHIND. ) ;
#242 = TOROIDAL_SURFACE ( 'NONE', #190, 0.2161978940414089600, 0.002500000000000000500 ) ;
#243 = AXIS2_PLACEMENT_3D ( 'NONE', #378, #90, #541 ) ;
#244 = ORIENTED_EDGE ( 'NONE', *, *, #180, .F. ) ;
#245 = ORIENTED_EDGE ( 'NONE', *, *, #118, .F. ) ;
#246 = AXIS2_PLACEMENT_3D ( 'NONE', #593, #374, #43 ) ;
#247 = DIRECTION ( 'NONE',  ( 0.0000000000000000000, 1.836970198721030200E-016, -1.000000000000000000 ) ) ;
#248 = DIRECTION ( 'NONE',  ( 0.0000000000000000000, 1.576066150190921600E-016, -1.000000000000000000 ) ) ;
#249 = CARTESIAN_POINT ( 'NONE',  ( 0.0000000000000000000, 0.06250000000000002800, 3.414809992080329000E-017 ) ) ;
#250 = DIRECTION ( 'NONE',  ( 0.0000000000000000000, 1.836970198721029900E-016, -1.000000000000000000 ) ) ;
#251 = DIRECTION ( 'NONE',  ( 0.0000000000000000000, 1.836970198721029900E-016, -1.000000000000000000 ) ) ;
#252 = AXIS2_PLACEMENT_3D ( 'NONE', #700, #434, #534 ) ;
#253 = DIRECTION ( 'NONE',  ( -1.000000000000000000, 0.0000000000000000000, 0.0000000000000000000 ) ) ;
#254 = CIRCLE ( 'NONE', #560, 0.09374999999999998600 ) ;
#255 = FACE_OUTER_BOUND ( 'NONE', #363, .T. ) ;
#256 = ORIENTED_EDGE ( 'NONE', *, *, #269, .T. ) ;
#257 = DIRECTION ( 'NONE',  ( 0.0000000000000000000, 1.821231995776175700E-016, -1.000000000000000000 ) ) ;
#258 = DIRECTION ( 'NONE',  ( 1.000000000000000000, 2.249639673992786700E-032, -1.224646799147353200E-016 ) ) ;
#259 = CARTESIAN_POINT ( 'NONE',  ( 0.0000000000000000000, 0.05624999999999998800, 0.1624999999999999800 ) ) ;
#260 = EDGE_CURVE ( 'NONE', #4, #108, #501, .T. ) ;
#261 = CARTESIAN_POINT ( 'NONE',  ( 0.0000000000000000000, -0.1225000000000000100, -1.484884243966166500E-017 ) ) ;
#262 = AXIS2_PLACEMENT_3D ( 'NONE', #436, #94, #440 ) ;
#263 = APPROVAL_DATE_TIME ( #656, #121 ) ;
#264 = DIRECTION ( 'NONE',  ( -0.0000000000000000000, -1.000000000000000000, -1.836970198721029900E-016 ) ) ;
#265 = CIRCLE ( 'NONE', #113, 0.1562499999999999400 ) ;
#266 = ORIENTED_EDGE ( 'NONE', *, *, #164, .T. ) ;
#267 = ORIENTED_EDGE ( 'NONE', *, *, #712, .T. ) ;
#268 = DIRECTION ( 'NONE',  ( -1.224646799147351700E-016, 0.0000000000000000000, -1.000000000000000000 ) ) ;
#269 = EDGE_CURVE ( 'NONE', #200, #474, #559, .T. ) ;
#270 = CARTESIAN_POINT ( 'NONE',  ( 2.295880397383552600E-017, 0.1250000000000000000, 0.1562499999999999700 ) ) ;
#271 = DIRECTION ( 'NONE',  ( -0.0000000000000000000, -1.000000000000000000, -1.836970198721029900E-016 ) ) ;
#272 = AXIS2_PLACEMENT_3D ( 'NONE', #615, #292, #684 ) ;
#273 = CARTESIAN_POINT ( 'NONE',  ( 0.0000000000000000000, 0.05625000000000001500, 1.798699986247675200E-017 ) ) ;
#274 = DIRECTION ( 'NONE',  ( 1.000000000000000000, 2.249639673992786700E-032, -1.224646799147353200E-016 ) ) ;
#275 = COORDINATED_UNIVERSAL_TIME_OFFSET ( 6, 0, .BEHIND. ) ;
#276 = CIRCLE ( 'NONE', #303, 0.09625000000000000200 ) ;
#277 = FACE_OUTER_BOUND ( 'NONE', #381, .T. ) ;
#278 = ORIENTED_EDGE ( 'NONE', *, *, #323, .F. ) ;
#279 = DIRECTION ( 'NONE',  ( 0.0000000000000000000, 1.000000000000000000, 1.836970198721029900E-016 ) ) ;
#280 = CC_DESIGN_APPROVAL ( #121, ( #91 ) ) ;
#281 = CARTESIAN_POINT ( 'NONE',  ( 0.0000000000000000000, -0.1225000000000000000, -0.09625000000000001600 ) ) ;
#282 = TOROIDAL_SURFACE ( 'NONE', #59, 0.1624999999999999500, 0.006250000000000000300 ) ;
#283 = ORIENTED_EDGE ( 'NONE', *, *, #601, .F. ) ;
#284 = VERTEX_POINT ( 'NONE', #341 ) ;
#285 = AXIS2_PLACEMENT_3D ( 'NONE', #398, #231, #687 ) ;
#286 = AXIS2_PLACEMENT_3D ( 'NONE', #281, #609, #329 ) ;
#287 = DIRECTION ( 'NONE',  ( 0.0000000000000000000, -1.000000000000000000, -1.836970198721030200E-016 ) ) ;
#288 = LOCAL_TIME ( 9, 25, 23.00000000000000000, #646 ) ;
#289 = DIRECTION ( 'NONE',  ( -0.0000000000000000000, -1.000000000000000000, -1.836970198721029900E-016 ) ) ;
#290 = FACE_OUTER_BOUND ( 'NONE', #728, .T. ) ;
#291 = PRODUCT_DEFINITION ( 'UNKNOWN', '', #236, #410 ) ;
#292 = DIRECTION ( 'NONE',  ( -0.0000000000000000000, -1.000000000000000000, -1.836970198721029900E-016 ) ) ;
#293 = FACE_OUTER_BOUND ( 'NONE', #439, .T. ) ;
#294 = VERTEX_POINT ( 'NONE', #421 ) ;
#295 = ORIENTED_EDGE ( 'NONE', *, *, #707, .T. ) ;
#296 = CARTESIAN_POINT ( 'NONE',  ( 0.0000000000000000000, -0.06249999999999996500, 2.784162997853103200E-033 ) ) ;
#297 = ADVANCED_FACE ( 'NONE', ( #594 ), #372, .T. ) ;
#298 = CARTESIAN_POINT ( 'NONE',  ( 0.0000000000000000000, -0.06499999999999996100, -4.592425496802550900E-019 ) ) ;
#299 = PERSON ( 'UNSPECIFIED', 'UNSPECIFIED', 'UNSPECIFIED', ('UNSPECIFIED'), ('UNSPECIFIED'), ('UNSPECIFIED') ) ;
#300 = EDGE_CURVE ( 'NONE', #474, #200, #214, .T. ) ;
#301 = VECTOR ( 'NONE', #488, 39.37007874015748100 ) ;
#302 = EDGE_LOOP ( 'NONE', ( #181, #383, #691, #119 ) ) ;
#303 = AXIS2_PLACEMENT_3D ( 'NONE', #189, #692, #16 ) ;
#304 = ORIENTED_EDGE ( 'NONE', *, *, #616, .F. ) ;
#305 = ORIENTED_EDGE ( 'NONE', *, *, #323, .T. ) ;
#306 = CARTESIAN_POINT ( 'NONE',  ( 0.0000000000000000000, -0.1250000000000001100, -1.530808498934193700E-017 ) ) ;
#307 = EDGE_CURVE ( 'NONE', #637, #284, #83, .T. ) ;
#308 = DIRECTION ( 'NONE',  ( 0.0000000000000000000, 1.821231995776175700E-016, -1.000000000000000000 ) ) ;
#309 = FACE_OUTER_BOUND ( 'NONE', #572, .T. ) ;
#310 = AXIS2_PLACEMENT_3D ( 'NONE', #53, #678, #7 ) ;
#311 = EDGE_LOOP ( 'NONE', ( #139, #449 ) ) ;
#312 = ORIENTED_EDGE ( 'NONE', *, *, #601, .T. ) ;
#313 = CARTESIAN_POINT ( 'NONE',  ( 0.0000000000000000000, 0.06500000000000003000, 3.460734247048354400E-017 ) ) ;
#314 = CC_DESIGN_SECURITY_CLASSIFICATION ( #91, ( #236 ) ) ;
#315 = DIRECTION ( 'NONE',  ( 0.0000000000000000000, -1.639108796198558400E-016, 1.000000000000000000 ) ) ;
#316 = CIRCLE ( 'NONE', #133, 0.002500000000000007400 ) ;
#317 = FACE_OUTER_BOUND ( 'NONE', #172, .T. ) ;
#318 = VERTEX_POINT ( 'NONE', #655 ) ;
#319 = DIRECTION ( 'NONE',  ( 0.0000000000000000000, 1.821231995776175700E-016, -1.000000000000000000 ) ) ;
#320 = ORIENTED_EDGE ( 'NONE', *, *, #76, .F. ) ;
#321 = CARTESIAN_POINT ( 'NONE',  ( 0.0000000000000000000, -0.1250000000000001100, -1.530808498934193700E-017 ) ) ;
#322 = DIRECTION ( 'NONE',  ( 0.0000000000000000000, 1.000000000000000000, 1.836970198721029900E-016 ) ) ;
#323 = EDGE_CURVE ( 'NONE', #578, #718, #387, .T. ) ;
#324 = AXIS2_PLACEMENT_3D ( 'NONE', #557, #495, #332 ) ;
#325 = CARTESIAN_POINT ( 'NONE',  ( 2.647660589202101500E-017, -0.06500000000000000200, 0.2161978940414089900 ) ) ;
#326 = CIRCLE ( 'NONE', #143, 0.2161978940414089600 ) ;
#327 = VERTEX_POINT ( 'NONE', #417 ) ;
#328 = ORIENTED_EDGE ( 'NONE', *, *, #382, .F. ) ;
#329 = DIRECTION ( 'NONE',  ( 0.0000000000000000000, 0.0000000000000000000, 1.000000000000000000 ) ) ;
#330 = ORIENTED_EDGE ( 'NONE', *, *, #14, .T. ) ;
#331 = CC_DESIGN_PERSON_AND_ORGANIZATION_ASSIGNMENT ( #549, #157, ( #291 ) ) ;
#332 = DIRECTION ( 'NONE',  ( 0.0000000000000000000, 0.0000000000000000000, 1.000000000000000000 ) ) ;
#333 = TOROIDAL_SURFACE ( 'NONE', #246, 0.1624999999999999500, 0.006250000000000000300 ) ;
#334 = CIRCLE ( 'NONE', #719, 0.2161978940414089900 ) ;
#335 = CARTESIAN_POINT ( 'NONE',  ( 0.0000000000000000000, 0.0000000000000000000, 0.0000000000000000000 ) ) ;
#336 = CARTESIAN_POINT ( 'NONE',  ( 0.0000000000000000000, -0.1250000000000001100, -1.530808498934193700E-017 ) ) ;
#337 = ORIENTED_EDGE ( 'NONE', *, *, #707, .F. ) ;
#338 = MANIFOLD_SOLID_BREP ( 'Fillet2', #391 ) ;
#339 = CARTESIAN_POINT ( 'NONE',  ( 0.0000000000000000000, -0.1225000000000000100, -1.484884243966166500E-017 ) ) ;
#340 = AXIS2_PLACEMENT_3D ( 'NONE', #641, #476, #193 ) ;
#341 = CARTESIAN_POINT ( 'NONE',  ( 1.990051048614448300E-017, -0.06249999999999999300, 0.1624999999999999500 ) ) ;
#342 = ADVANCED_FACE ( 'NONE', ( #358 ), #648, .T. ) ;
#343 = EDGE_CURVE ( 'NONE', #93, #226, #635, .T. ) ;
#344 = LOCAL_TIME ( 9, 25, 23.00000000000000000, #275 ) ;
#345 = CIRCLE ( 'NONE', #262, 0.006250000000000001200 ) ;
#346 = CARTESIAN_POINT ( 'NONE',  ( 0.0000000000000000000, 0.1225000000000000300, 3.015692742900357700E-017 ) ) ;
#347 = VERTEX_POINT ( 'NONE', #429 ) ;
#348 = ORIENTED_EDGE ( 'NONE', *, *, #362, .T. ) ;
#349 = ORIENTED_EDGE ( 'NONE', *, *, #644, .F. ) ;
#350 = AXIS2_PLACEMENT_3D ( 'NONE', #135, #584, #642 ) ;
#351 = CARTESIAN_POINT ( 'NONE',  ( 1.913510623667738500E-017, 0.06250000000000001400, 0.1562499999999999700 ) ) ;
#352 = CARTESIAN_POINT ( 'NONE',  ( 0.0000000000000000000, 0.06250000000000005600, -0.1562499999999999200 ) ) ;
#353 = CARTESIAN_POINT ( 'NONE',  ( 0.0000000000000000000, 0.1250000000000000300, 3.061616997868383600E-017 ) ) ;
#354 = CARTESIAN_POINT ( 'NONE',  ( 0.0000000000000000000, -0.06249999999999997200, 0.0000000000000000000 ) ) ;
#355 = CIRCLE ( 'NONE', #452, 0.002500000000000007400 ) ;
#356 = PRODUCT_RELATED_PRODUCT_CATEGORY ( 'detail', '', ( #575 ) ) ;
#357 = PLANE ( 'NONE',  #566 ) ;
#358 = FACE_OUTER_BOUND ( 'NONE', #702, .T. ) ;
#359 = ORIENTED_EDGE ( 'NONE', *, *, #233, .F. ) ;
#360 = CARTESIAN_POINT ( 'NONE',  ( 0.0000000000000000000, 0.1250000000000000300, 3.061616997868383000E-017 ) ) ;
#361 = CARTESIAN_POINT ( 'NONE',  ( 0.0000000000000000000, -0.1250000000000000000, -0.09625000000000001600 ) ) ;
#362 = EDGE_CURVE ( 'NONE', #347, #446, #629, .T. ) ;
#363 = EDGE_LOOP ( 'NONE', ( #320, #630, #483, #667 ) ) ;
#364 = CARTESIAN_POINT ( 'NONE',  ( 0.0000000000000000000, 0.1250000000000000300, 3.061616997868383600E-017 ) ) ;
#365 = ORIENTED_EDGE ( 'NONE', *, *, #307, .T. ) ;
#366 = PRODUCT_DEFINITION_SHAPE ( 'NONE', 'NONE',  #291 ) ;
#367 = DIRECTION ( 'NONE',  ( -0.0000000000000000000, -1.000000000000000000, -1.836970198721029900E-016 ) ) ;
#368 = AXIS2_PLACEMENT_3D ( 'NONE', #556, #44, #134 ) ;
#369 = DIRECTION ( 'NONE',  ( 0.0000000000000000000, -1.000000000000000000, -1.836970198721030200E-016 ) ) ;
#370 = DIRECTION ( 'NONE',  ( 0.0000000000000000000, 0.0000000000000000000, 1.000000000000000000 ) ) ;
#371 = PERSON_AND_ORGANIZATION ( #299, #18 ) ;
#372 = TOROIDAL_SURFACE ( 'NONE', #423, 0.09625000000000000200, 0.002500000000000000500 ) ;
#373 = ORIENTED_EDGE ( 'NONE', *, *, #519, .F. ) ;
#374 = DIRECTION ( 'NONE',  ( 0.0000000000000000000, 1.000000000000000000, 1.836970198721029900E-016 ) ) ;
#375 = DIRECTION ( 'NONE',  ( -0.0000000000000000000, -1.000000000000000000, -1.836970198721030200E-016 ) ) ;
#376 = AXIS2_PLACEMENT_3D ( 'NONE', #364, #123, #626 ) ;
#377 = CARTESIAN_POINT ( 'NONE',  ( 1.148106374200643400E-017, -0.1250000000000001100, 0.09374999999999997200 ) ) ;
#378 = CARTESIAN_POINT ( 'NONE',  ( 1.178722544179327300E-017, -0.1225000000000000300, 0.09624999999999997400 ) ) ;
#379 = DATE_AND_TIME ( #669, #523 ) ;
#380 = FACE_OUTER_BOUND ( 'NONE', #130, .T. ) ;
#381 = EDGE_LOOP ( 'NONE', ( #304, #686, #295, #359 ) ) ;
#382 = EDGE_CURVE ( 'NONE', #475, #446, #467, .T. ) ;
#383 = ORIENTED_EDGE ( 'NONE', *, *, #419, .F. ) ;
#384 = VERTEX_POINT ( 'NONE', #505 ) ;
#385 = AXIS2_PLACEMENT_3D ( 'NONE', #547, #271, #690 ) ;
#386 = APPLICATION_CONTEXT ( 'configuration controlled 3d designs of mechanical parts and assemblies' ) ;
#387 = CIRCLE ( 'NONE', #376, 0.1562499999999999400 ) ;
#388 = EDGE_CURVE ( 'NONE', #284, #637, #716, .T. ) ;
#389 = ORIENTED_EDGE ( 'NONE', *, *, #343, .T. ) ;
#390 = MECHANICAL_CONTEXT ( 'NONE', #613, 'mechanical' ) ;
#391 = CLOSED_SHELL ( 'NONE', ( #68, #342, #297, #624, #184, #682, #576, #125, #463, #177, #408, #182, #627, #192, #220, #562, #400, #66, #120, #174, #240, #60, #411, #567 ) ) ;
#392 = AXIS2_PLACEMENT_3D ( 'NONE', #418, #470, #530 ) ;
#393 = DIRECTION ( 'NONE',  ( 0.0000000000000000000, -1.639108796198558400E-016, 1.000000000000000000 ) ) ;
#394 = CIRCLE ( 'NONE', #252, 0.1562499999999999400 ) ;
#395 = ORIENTED_EDGE ( 'NONE', *, *, #132, .T. ) ;
#396 = CARTESIAN_POINT ( 'NONE',  ( 0.0000000000000000000, 0.1250000000000000300, -0.09624999999999996100 ) ) ;
#397 = ORIENTED_EDGE ( 'NONE', *, *, #599, .F. ) ;
#398 = CARTESIAN_POINT ( 'NONE',  ( 0.0000000000000000000, 0.06250000000000002800, 3.414809992080329000E-017 ) ) ;
#399 = CARTESIAN_POINT ( 'NONE',  ( 0.0000000000000000000, -0.05624999999999996700, -2.678914873134832300E-018 ) ) ;
#400 = ADVANCED_FACE ( 'NONE', ( #404 ), #664, .T. ) ;
#401 = DIRECTION ( 'NONE',  ( 0.0000000000000000000, 1.836970198721029900E-016, -1.000000000000000000 ) ) ;
#402 = AXIS2_PLACEMENT_3D ( 'NONE', #633, #636, #251 ) ;
#403 = CARTESIAN_POINT ( 'NONE',  ( 1.148106374200643400E-017, -0.1225000000000000300, 0.09374999999999997200 ) ) ;
#404 = FACE_OUTER_BOUND ( 'NONE', #658, .T. ) ;
#405 = CARTESIAN_POINT ( 'NONE',  ( 0.0000000000000000000, -0.06249999999999992400, -0.2161978940414089900 ) ) ;
#406 = ORIENTED_EDGE ( 'NONE', *, *, #660, .T. ) ;
#407 = ORIENTED_EDGE ( 'NONE', *, *, #14, .F. ) ;
#408 = ADVANCED_FACE ( 'NONE', ( #178 ), #3, .T. ) ;
#409 = DIRECTION ( 'NONE',  ( 0.0000000000000000000, 1.836970198721029900E-016, -1.000000000000000000 ) ) ;
#410 = DESIGN_CONTEXT ( 'detailed design', #386, 'design' ) ;
#411 = ADVANCED_FACE ( 'NONE', ( #724 ), #160, .T. ) ;
#412 = PERSON_AND_ORGANIZATION ( #299, #18 ) ;
#413 = AXIS2_PLACEMENT_3D ( 'NONE', #75, #367, #478 ) ;
#414 = CIRCLE ( 'NONE', #243, 0.002500000000000007400 ) ;
#415 = VERTEX_POINT ( 'NONE', #196 ) ;
#416 = ORIENTED_EDGE ( 'NONE', *, *, #76, .T. ) ;
#417 = CARTESIAN_POINT ( 'NONE',  ( 2.662955380150733600E-017, 0.06250000000000006900, -0.2161978940414089100 ) ) ;
#418 = CARTESIAN_POINT ( 'NONE',  ( 0.0000000000000000000, -0.06249999999999996500, 2.784162997853103200E-033 ) ) ;
#419 = EDGE_CURVE ( 'NONE', #65, #327, #326, .T. ) ;
#420 = DIRECTION ( 'NONE',  ( -0.0000000000000000000, -1.000000000000000000, -1.836970198721029900E-016 ) ) ;
#421 = CARTESIAN_POINT ( 'NONE',  ( 0.0000000000000000000, -0.1249999999999999600, -0.1562499999999999700 ) ) ;
#422 = CARTESIAN_POINT ( 'NONE',  ( 0.0000000000000000000, 0.1225000000000000300, 3.015692742900357700E-017 ) ) ;
#423 = AXIS2_PLACEMENT_3D ( 'NONE', #346, #486, #515 ) ;
#424 = CALENDAR_DATE ( 2024, 22, 2 ) ;
#425 = LINE ( 'NONE', #58, #46 ) ;
#426 = EDGE_LOOP ( 'NONE', ( #596, #503, #511, #51 ) ) ;
#427 = CARTESIAN_POINT ( 'NONE',  ( 0.0000000000000000000, -0.06499999999999991900, -0.2161978940414089900 ) ) ;
#428 = DIRECTION ( 'NONE',  ( 0.0000000000000000000, 0.0000000000000000000, 1.000000000000000000 ) ) ;
#429 = CARTESIAN_POINT ( 'NONE',  ( 0.0000000000000000000, 0.05625000000000004300, -0.1562499999999999200 ) ) ;
#430 = CARTESIAN_POINT ( 'NONE',  ( 0.0000000000000000000, -0.1250000000000000800, -0.09375000000000001400 ) ) ;
#431 = AXIS2_PLACEMENT_3D ( 'NONE', #259, #56, #614 ) ;
#432 = DIRECTION ( 'NONE',  ( 0.0000000000000000000, 2.185478394931411300E-016, -1.000000000000000000 ) ) ;
#433 = CARTESIAN_POINT ( 'NONE',  ( 1.990051048614448300E-017, -0.05624999999999998800, 0.1624999999999999500 ) ) ;
#434 = DIRECTION ( 'NONE',  ( 0.0000000000000000000, 1.000000000000000000, 1.836970198721029900E-016 ) ) ;
#435 = CIRCLE ( 'NONE', #441, 0.1562499999999999700 ) ;
#436 = CARTESIAN_POINT ( 'NONE',  ( 1.990051048614448300E-017, 0.05625000000000004300, -0.1624999999999998900 ) ) ;
#437 = FACE_OUTER_BOUND ( 'NONE', #52, .T. ) ;
#438 = ORIENTED_EDGE ( 'NONE', *, *, #676, .T. ) ;
#439 = EDGE_LOOP ( 'NONE', ( #238, #239 ) ) ;
#440 = DIRECTION ( 'NONE',  ( 1.224646799147351700E-016, 0.0000000000000000000, -1.000000000000000000 ) ) ;
#441 = AXIS2_PLACEMENT_3D ( 'NONE', #32, #146, #600 ) ;
#442 = APPROVAL_ROLE ( '' ) ;
#443 = LINE ( 'NONE', #377, #301 ) ;
#444 = FACE_OUTER_BOUND ( 'NONE', #155, .T. ) ;
#445 = AXIS2_PLACEMENT_3D ( 'NONE', #306, #22, #257 ) ;
#446 = VERTEX_POINT ( 'NONE', #590 ) ;
#447 = APPLICATION_PROTOCOL_DEFINITION ( 'international standard', 'config_control_design', 1994, #386 ) ;
#448 = CIRCLE ( 'NONE', #552, 0.002500000000000007400 ) ;
#449 = ORIENTED_EDGE ( 'NONE', *, *, #118, .T. ) ;
#450 = ORIENTED_EDGE ( 'NONE', *, *, #540, .T. ) ;
#451 = ORIENTED_EDGE ( 'NONE', *, *, #492, .T. ) ;
#452 = AXIS2_PLACEMENT_3D ( 'NONE', #325, #704, #87 ) ;
#453 = CARTESIAN_POINT ( 'NONE',  ( 0.0000000000000000000, 0.06510416666666669900, 3.462647757672022400E-017 ) ) ;
#454 = DIRECTION ( 'NONE',  ( -1.000000000000000000, 0.0000000000000000000, 0.0000000000000000000 ) ) ;
#455 = EDGE_CURVE ( 'NONE', #226, #294, #186, .T. ) ;
#456 = PERSON_AND_ORGANIZATION ( #299, #18 ) ;
#457 = TOROIDAL_SURFACE ( 'NONE', #219, 0.09625000000000000200, 0.002500000000000000500 ) ;
#458 = DIRECTION ( 'NONE',  ( 0.0000000000000000000, -1.836970198721029900E-016, 1.000000000000000000 ) ) ;
#459 = ORIENTED_EDGE ( 'NONE', *, *, #388, .T. ) ;
#460 = VERTEX_POINT ( 'NONE', #361 ) ;
#461 = AXIS2_PLACEMENT_3D ( 'NONE', #71, #579, #248 ) ;
#462 = DIRECTION ( 'NONE',  ( -1.224646799147353000E-016, 0.0000000000000000000, -1.000000000000000000 ) ) ;
#463 = ADVANCED_FACE ( 'NONE', ( #154 ), #234, .F. ) ;
#464 = DIRECTION ( 'NONE',  ( 0.0000000000000000000, 1.836970198721029900E-016, -1.000000000000000000 ) ) ;
#465 = EDGE_CURVE ( 'NONE', #6, #318, #10, .T. ) ;
#466 = AXIS2_PLACEMENT_3D ( 'NONE', #336, #77, #432 ) ;
#467 = CIRCLE ( 'NONE', #431, 0.006250000000000001200 ) ;
#468 = FACE_OUTER_BOUND ( 'NONE', #426, .T. ) ;
#469 = EDGE_LOOP ( 'NONE', ( #397, #373, #450, #145 ) ) ;
#470 = DIRECTION ( 'NONE',  ( 0.0000000000000000000, 1.000000000000000000, 1.836970198721029900E-016 ) ) ;
#471 = AXIS2_PLACEMENT_3D ( 'NONE', #335, #548, #720 ) ;
#472 = SHAPE_DEFINITION_REPRESENTATION ( #366, #499 ) ;
#473 = DIRECTION ( 'NONE',  ( 0.0000000000000000000, 1.836970198721030200E-016, -1.000000000000000000 ) ) ;
#474 = VERTEX_POINT ( 'NONE', #698 ) ;
#475 = VERTEX_POINT ( 'NONE', #79 ) ;
#476 = DIRECTION ( 'NONE',  ( 0.0000000000000000000, 1.000000000000000000, 1.836970198721029900E-016 ) ) ;
#477 = CC_DESIGN_DATE_AND_TIME_ASSIGNMENT ( #379, #726, ( #291 ) ) ;
#478 = DIRECTION ( 'NONE',  ( 0.0000000000000000000, 2.185478394931411100E-016, -1.000000000000000000 ) ) ;
#479 = PLANE ( 'NONE',  #545 ) ;
#480 = CARTESIAN_POINT ( 'NONE',  ( 0.0000000000000000000, 0.05625000000000001500, 1.798699986247675200E-017 ) ) ;
#481 = CIRCLE ( 'NONE', #206, 0.09374999999999998600 ) ;
#482 = ORIENTED_EDGE ( 'NONE', *, *, #27, .T. ) ;
#483 = ORIENTED_EDGE ( 'NONE', *, *, #695, .T. ) ;
#484 = CARTESIAN_POINT ( 'NONE',  ( 0.0000000000000000000, -0.1225000000000000100, -1.484884243966166500E-017 ) ) ;
#485 = ORIENTED_EDGE ( 'NONE', *, *, #211, .T. ) ;
#486 = DIRECTION ( 'NONE',  ( -0.0000000000000000000, -1.000000000000000000, -1.836970198721029900E-016 ) ) ;
#487 = AXIS2_PLACEMENT_3D ( 'NONE', #209, #653, #34 ) ;
#488 = DIRECTION ( 'NONE',  ( -0.0000000000000000000, -1.000000000000000000, -1.836970198721030200E-016 ) ) ;
#489 = APPROVAL_DATE_TIME ( #583, #622 ) ;
#490 = DIRECTION ( 'NONE',  ( 0.0000000000000000000, -1.951804284204048900E-016, 1.000000000000000000 ) ) ;
#491 = CIRCLE ( 'NONE', #589, 0.006250000000000001200 ) ;
#492 = EDGE_CURVE ( 'NONE', #460, #223, #276, .T. ) ;
#493 = ORIENTED_EDGE ( 'NONE', *, *, #382, .T. ) ;
#494 = ORIENTED_EDGE ( 'NONE', *, *, #218, .F. ) ;
#495 = DIRECTION ( 'NONE',  ( -1.000000000000000000, 0.0000000000000000000, 0.0000000000000000000 ) ) ;
#496 = ORIENTED_EDGE ( 'NONE', *, *, #714, .F. ) ;
#497 = AXIS2_PLACEMENT_3D ( 'NONE', #351, #514, #462 ) ;
#498 = CARTESIAN_POINT ( 'NONE',  ( 0.0000000000000000000, 0.1250000000000000600, -0.1562499999999999200 ) ) ;
#499 = ADVANCED_BREP_SHAPE_REPRESENTATION ( '9307K12_Buna-N Rubber Grommets', ( #338, #471 ), #104 ) ;
#500 = PERSON_AND_ORGANIZATION_ROLE ( 'classification_officer' ) ;
#501 = CIRCLE ( 'NONE', #310, 0.2186957229598009700 ) ;
#502 = SECURITY_CLASSIFICATION_LEVEL ( 'unclassified' ) ;
#503 = ORIENTED_EDGE ( 'NONE', *, *, #170, .T. ) ;
#504 =( NAMED_UNIT ( * ) SI_UNIT ( $, .STERADIAN. ) SOLID_ANGLE_UNIT ( ) );
#505 = CARTESIAN_POINT ( 'NONE',  ( 1.913510623667738500E-017, -0.05624999999999998800, 0.1562499999999999400 ) ) ;
#506 = DIRECTION ( 'NONE',  ( 0.0000000000000000000, -1.576066150190921600E-016, 1.000000000000000000 ) ) ;
#507 = CIRCLE ( 'NONE', #204, 0.2186957229598008900 ) ;
#508 = AXIS2_PLACEMENT_3D ( 'NONE', #399, #222, #512 ) ;
#509 = ORIENTED_EDGE ( 'NONE', *, *, #164, .F. ) ;
#510 = DIRECTION ( 'NONE',  ( 0.0000000000000000000, 1.000000000000000000, 1.836970198721029900E-016 ) ) ;
#511 = ORIENTED_EDGE ( 'NONE', *, *, #675, .T. ) ;
#512 = DIRECTION ( 'NONE',  ( 0.0000000000000000000, 1.639108796198558400E-016, -1.000000000000000000 ) ) ;
#513 = CARTESIAN_POINT ( 'NONE',  ( 0.0000000000000000000, -0.05624999999999993900, -0.1562499999999999400 ) ) ;
#514 = DIRECTION ( 'NONE',  ( 1.000000000000000000, 2.249639673992786700E-032, -1.224646799147353200E-016 ) ) ;
#515 = DIRECTION ( 'NONE',  ( 0.0000000000000000000, 1.836970198721029900E-016, -1.000000000000000000 ) ) ;
#516 = CIRCLE ( 'NONE', #88, 0.002500000000000007400 ) ;
#517 = ORIENTED_EDGE ( 'NONE', *, *, #634, .F. ) ;
#518 = DIRECTION ( 'NONE',  ( -0.0000000000000000000, -1.000000000000000000, -1.836970198721030200E-016 ) ) ;
#519 = EDGE_CURVE ( 'NONE', #228, #561, #628, .T. ) ;
#520 = DIRECTION ( 'NONE',  ( 0.0000000000000000000, 1.773927268613157900E-016, -1.000000000000000000 ) ) ;
#521 = AXIS2_PLACEMENT_3D ( 'NONE', #651, #141, #35 ) ;
#522 = DIRECTION ( 'NONE',  ( -0.0000000000000000000, -1.000000000000000000, -1.836970198721029900E-016 ) ) ;
#523 = LOCAL_TIME ( 9, 25, 23.00000000000000000, #97 ) ;
#524 = CIRCLE ( 'NONE', #2, 0.2186957229598009700 ) ;
#525 = ORIENTED_EDGE ( 'NONE', *, *, #233, .T. ) ;
#526 = ORIENTED_EDGE ( 'NONE', *, *, #519, .T. ) ;
#527 = DIRECTION ( 'NONE',  ( -1.000000000000000000, 0.0000000000000000000, 0.0000000000000000000 ) ) ;
#528 = EDGE_LOOP ( 'NONE', ( #169, #586, #543, #650 ) ) ;
#529 = AXIS2_PLACEMENT_3D ( 'NONE', #354, #62, #681 ) ;
#530 = DIRECTION ( 'NONE',  ( 0.0000000000000000000, 1.974354333573134200E-016, -1.000000000000000000 ) ) ;
#531 = CARTESIAN_POINT ( 'NONE',  ( 0.0000000000000000000, -0.1250000000000000600, -0.1562499999999999400 ) ) ;
#532 = DIRECTION ( 'NONE',  ( 0.0000000000000000000, 0.0000000000000000000, 1.000000000000000000 ) ) ;
#533 = EDGE_CURVE ( 'NONE', #327, #4, #316, .T. ) ;
#534 = DIRECTION ( 'NONE',  ( 0.0000000000000000000, 1.639108796198558400E-016, -1.000000000000000000 ) ) ;
#535 = APPROVAL_PERSON_ORGANIZATION ( #70, #121, #442 ) ;
#536 = CIRCLE ( 'NONE', #198, 0.06250000000000001400 ) ;
#537 = CIRCLE ( 'NONE', #497, 0.06250000000000001400 ) ;
#538 = CARTESIAN_POINT ( 'NONE',  ( 0.0000000000000000000, 0.06249999999999999300, 0.2161978940414089900 ) ) ;
#539 = EDGE_LOOP ( 'NONE', ( #619, #595 ) ) ;
#540 = EDGE_CURVE ( 'NONE', #228, #415, #448, .T. ) ;
#541 = DIRECTION ( 'NONE',  ( -1.224646799147346800E-016, 0.0000000000000000000, -1.000000000000000000 ) ) ;
#542 = VECTOR ( 'NONE', #375, 39.37007874015748100 ) ;
#543 = ORIENTED_EDGE ( 'NONE', *, *, #269, .F. ) ;
#544 = EDGE_LOOP ( 'NONE', ( #283, #395, #482, #438 ) ) ;
#545 = AXIS2_PLACEMENT_3D ( 'NONE', #197, #591, #203 ) ;
#546 = DIRECTION ( 'NONE',  ( -1.000000000000000000, 0.0000000000000000000, 0.0000000000000000000 ) ) ;
#547 = CARTESIAN_POINT ( 'NONE',  ( 0.0000000000000000000, 0.1250000000000000300, 3.061616997868383000E-017 ) ) ;
#548 = DIRECTION ( 'NONE',  ( 0.0000000000000000000, 0.0000000000000000000, 1.000000000000000000 ) ) ;
#549 = PERSON_AND_ORGANIZATION ( #299, #18 ) ;
#550 = PERSON_AND_ORGANIZATION_ROLE ( 'design_supplier' ) ;
#551 = CYLINDRICAL_SURFACE ( 'NONE', #521, 0.09374999999999998600 ) ;
#552 = AXIS2_PLACEMENT_3D ( 'NONE', #427, #527, #532 ) ;
#553 = TOROIDAL_SURFACE ( 'NONE', #19, 0.1624999999999999500, 0.006250000000000000300 ) ;
#554 = ORIENTED_EDGE ( 'NONE', *, *, #362, .F. ) ;
#555 = DIRECTION ( 'NONE',  ( 0.0000000000000000000, 1.773927268613157900E-016, -1.000000000000000000 ) ) ;
#556 = CARTESIAN_POINT ( 'NONE',  ( 0.0000000000000000000, -0.06249999999999996500, -3.827021247335475700E-018 ) ) ;
#557 = CARTESIAN_POINT ( 'NONE',  ( 0.0000000000000000000, -0.05624999999999993900, -0.1624999999999999500 ) ) ;
#558 = CALENDAR_DATE ( 2024, 22, 2 ) ;
#559 = CIRCLE ( 'NONE', #581, 0.09625000000000000200 ) ;
#560 = AXIS2_PLACEMENT_3D ( 'NONE', #261, #652, #319 ) ;
#561 = VERTEX_POINT ( 'NONE', #185 ) ;
#562 = ADVANCED_FACE ( 'NONE', ( #309, #28 ), #131, .F. ) ;
#563 = EDGE_LOOP ( 'NONE', ( #509, #278 ) ) ;
#564 = DIRECTION ( 'NONE',  ( 0.0000000000000000000, 1.000000000000000000, 1.836970198721029900E-016 ) ) ;
#565 = CARTESIAN_POINT ( 'NONE',  ( 2.295880397383552900E-017, -0.1250000000000000300, 0.1562499999999999700 ) ) ;
#566 = AXIS2_PLACEMENT_3D ( 'NONE', #49, #287, #247 ) ;
#567 = ADVANCED_FACE ( 'NONE', ( #683 ), #573, .T. ) ;
#568 = FACE_OUTER_BOUND ( 'NONE', #20, .T. ) ;
#569 = AXIS2_PLACEMENT_3D ( 'NONE', #33, #253, #370 ) ;
#570 = FACE_OUTER_BOUND ( 'NONE', #563, .T. ) ;
#571 = DIRECTION ( 'NONE',  ( -0.0000000000000000000, -1.000000000000000000, -1.836970198721029900E-016 ) ) ;
#572 = EDGE_LOOP ( 'NONE', ( #526, #31 ) ) ;
#573 = TOROIDAL_SURFACE ( 'NONE', #340, 0.2161978940414089600, 0.002500000000000000500 ) ;
#574 = CIRCLE ( 'NONE', #272, 0.2161978940414089600 ) ;
#575 = PRODUCT ( '9307K12_Buna-N Rubber Grommets', '9307K12_Buna-N Rubber Grommets', '', ( #390 ) ) ;
#576 = ADVANCED_FACE ( 'NONE', ( #81 ), #585, .T. ) ;
#577 = ORIENTED_EDGE ( 'NONE', *, *, #675, .F. ) ;
#578 = VERTEX_POINT ( 'NONE', #270 ) ;
#579 = DIRECTION ( 'NONE',  ( -0.0000000000000000000, -1.000000000000000000, -1.836970198721029900E-016 ) ) ;
#580 = DIRECTION ( 'NONE',  ( 0.0000000000000000000, 1.000000000000000000, 1.836970198721029900E-016 ) ) ;
#581 = AXIS2_PLACEMENT_3D ( 'NONE', #360, #13, #520 ) ;
#582 = DIRECTION ( 'NONE',  ( 1.000000000000000000, -2.249639673992786700E-032, 1.224646799147353200E-016 ) ) ;
#583 = DATE_AND_TIME ( #558, #344 ) ;
#584 = DIRECTION ( 'NONE',  ( -0.0000000000000000000, -1.000000000000000000, -1.836970198721029900E-016 ) ) ;
#585 = CYLINDRICAL_SURFACE ( 'NONE', #662, 0.1562499999999999400 ) ;
#586 = ORIENTED_EDGE ( 'NONE', *, *, #136, .T. ) ;
#587 = ORIENTED_EDGE ( 'NONE', *, *, #211, .F. ) ;
#588 = CARTESIAN_POINT ( 'NONE',  ( 0.0000000000000000000, 0.06250000000000002800, 3.414809992080328400E-017 ) ) ;
#589 = AXIS2_PLACEMENT_3D ( 'NONE', #433, #258, #268 ) ;
#590 = CARTESIAN_POINT ( 'NONE',  ( 1.913510623667738800E-017, 0.05624999999999998800, 0.1562499999999999700 ) ) ;
#591 = DIRECTION ( 'NONE',  ( 0.0000000000000000000, 1.000000000000000000, 1.836970198721030200E-016 ) ) ;
#592 = FACE_OUTER_BOUND ( 'NONE', #544, .T. ) ;
#593 = CARTESIAN_POINT ( 'NONE',  ( 0.0000000000000000000, 0.05625000000000001500, 1.798699986247675200E-017 ) ) ;
#594 = FACE_OUTER_BOUND ( 'NONE', #528, .T. ) ;
#595 = ORIENTED_EDGE ( 'NONE', *, *, #99, .T. ) ;
#596 = ORIENTED_EDGE ( 'NONE', *, *, #343, .F. ) ;
#597 = DIRECTION ( 'NONE',  ( 0.0000000000000000000, 1.836970198721029900E-016, -1.000000000000000000 ) ) ;
#598 = AXIS2_PLACEMENT_3D ( 'NONE', #96, #279, #555 ) ;
#599 = EDGE_CURVE ( 'NONE', #561, #93, #355, .T. ) ;
#600 = DIRECTION ( 'NONE',  ( 0.0000000000000000000, 2.185478394931411100E-016, -1.000000000000000000 ) ) ;
#601 = EDGE_CURVE ( 'NONE', #318, #110, #443, .T. ) ;
#602 = APPROVAL_DATE_TIME ( #680, #15 ) ;
#603 = PERSON_AND_ORGANIZATION ( #299, #18 ) ;
#604 = ORIENTED_EDGE ( 'NONE', *, *, #616, .T. ) ;
#605 = DIRECTION ( 'NONE',  ( -0.0000000000000000000, -1.000000000000000000, -1.836970198721029900E-016 ) ) ;
#606 = ORIENTED_EDGE ( 'NONE', *, *, #712, .F. ) ;
#607 = DIRECTION ( 'NONE',  ( 0.0000000000000000000, 1.836970198721030200E-016, -1.000000000000000000 ) ) ;
#608 = AXIS2_PLACEMENT_3D ( 'NONE', #173, #1, #677 ) ;
#609 = DIRECTION ( 'NONE',  ( -1.000000000000000000, 0.0000000000000000000, 0.0000000000000000000 ) ) ;
#610 = CC_DESIGN_PERSON_AND_ORGANIZATION_ASSIGNMENT ( #371, #500, ( #91 ) ) ;
#611 = EDGE_LOOP ( 'NONE', ( #156, #191, #717, #187 ) ) ;
#612 = ORIENTED_EDGE ( 'NONE', *, *, #695, .F. ) ;
#613 = APPLICATION_CONTEXT ( 'configuration controlled 3d designs of mechanical parts and assemblies' ) ;
#614 = DIRECTION ( 'NONE',  ( 0.0000000000000000000, 0.0000000000000000000, 1.000000000000000000 ) ) ;
#615 = CARTESIAN_POINT ( 'NONE',  ( 0.0000000000000000000, 0.06250000000000002800, 3.414809992080328400E-017 ) ) ;
#616 = EDGE_CURVE ( 'NONE', #284, #384, #491, .T. ) ;
#617 = CALENDAR_DATE ( 2024, 22, 2 ) ;
#618 = DIRECTION ( 'NONE',  ( -0.0000000000000000000, -1.000000000000000000, -1.836970198721029900E-016 ) ) ;
#619 = ORIENTED_EDGE ( 'NONE', *, *, #78, .T. ) ;
#620 = ORIENTED_EDGE ( 'NONE', *, *, #540, .F. ) ;
#621 = DIRECTION ( 'NONE',  ( 0.0000000000000000000, 1.951804284204048100E-016, -1.000000000000000000 ) ) ;
#622 = APPROVAL ( #661, 'UNSPECIFIED' ) ;
#623 = DIRECTION ( 'NONE',  ( 1.000000000000000000, 2.249639673992786700E-032, -1.224646799147353200E-016 ) ) ;
#624 = ADVANCED_FACE ( 'NONE', ( #290 ), #457, .T. ) ;
#625 = CARTESIAN_POINT ( 'NONE',  ( 0.0000000000000000000, -0.05624999999999996700, -2.678914873134832300E-018 ) ) ;
#626 = DIRECTION ( 'NONE',  ( 0.0000000000000000000, 2.185478394931411300E-016, -1.000000000000000000 ) ) ;
#627 = ADVANCED_FACE ( 'NONE', ( #592 ), #551, .F. ) ;
#628 = CIRCLE ( 'NONE', #392, 0.2161978940414089900 ) ;
#629 = CIRCLE ( 'NONE', #50, 0.1562499999999999400 ) ;
#630 = ORIENTED_EDGE ( 'NONE', *, *, #492, .F. ) ;
#631 = PLANE ( 'NONE',  #229 ) ;
#632 = AXIS2_PLACEMENT_3D ( 'NONE', #273, #605, #393 ) ;
#633 = CARTESIAN_POINT ( 'NONE',  ( 0.0000000000000000000, -0.06499999999999996100, -4.592425496802550900E-019 ) ) ;
#634 = EDGE_CURVE ( 'NONE', #415, #93, #45, .T. ) ;
#635 = CIRCLE ( 'NONE', #30, 0.06250000000000001400 ) ;
#636 = DIRECTION ( 'NONE',  ( -0.0000000000000000000, -1.000000000000000000, -1.836970198721029900E-016 ) ) ;
#637 = VERTEX_POINT ( 'NONE', #713 ) ;
#638 = EDGE_CURVE ( 'NONE', #294, #226, #435, .T. ) ;
#639 = EDGE_LOOP ( 'NONE', ( #12, #312, #47, #23 ) ) ;
#640 = VERTEX_POINT ( 'NONE', #85 ) ;
#641 = CARTESIAN_POINT ( 'NONE',  ( 0.0000000000000000000, 0.06500000000000003000, 3.460734247048354400E-017 ) ) ;
#642 = DIRECTION ( 'NONE',  ( 0.0000000000000000000, 1.836970198721029900E-016, -1.000000000000000000 ) ) ;
#643 = DIRECTION ( 'NONE',  ( 0.0000000000000000000, 1.836970198721029900E-016, -1.000000000000000000 ) ) ;
#644 = EDGE_CURVE ( 'NONE', #65, #108, #207, .T. ) ;
#645 = DIRECTION ( 'NONE',  ( -0.0000000000000000000, -1.000000000000000000, -1.836970198721030200E-016 ) ) ;
#646 = COORDINATED_UNIVERSAL_TIME_OFFSET ( 6, 0, .BEHIND. ) ;
#647 = CIRCLE ( 'NONE', #286, 0.002500000000000007400 ) ;
#648 = TOROIDAL_SURFACE ( 'NONE', #183, 0.2161978940414089900, 0.002500000000000000500 ) ;
#649 = DIRECTION ( 'NONE',  ( -0.0000000000000000000, -1.000000000000000000, -1.836970198721029900E-016 ) ) ;
#650 = ORIENTED_EDGE ( 'NONE', *, *, #36, .F. ) ;
#651 = CARTESIAN_POINT ( 'NONE',  ( 0.0000000000000000000, -0.1250000000000001100, -1.530808498934193700E-017 ) ) ;
#652 = DIRECTION ( 'NONE',  ( -0.0000000000000000000, -1.000000000000000000, -1.836970198721029900E-016 ) ) ;
#653 = DIRECTION ( 'NONE',  ( -1.000000000000000000, 0.0000000000000000000, 0.0000000000000000000 ) ) ;
#654 = CARTESIAN_POINT ( 'NONE',  ( 0.0000000000000000000, 0.06250000000000002800, 1.913510623667739800E-017 ) ) ;
#655 = CARTESIAN_POINT ( 'NONE',  ( 1.148106374200644000E-017, 0.1225000000000000100, 0.09375000000000002800 ) ) ;
#656 = DATE_AND_TIME ( #115, #288 ) ;
#657 = TOROIDAL_SURFACE ( 'NONE', #608, 0.1562499999999999700, 0.06250000000000002800 ) ;
#658 = EDGE_LOOP ( 'NONE', ( #74, #217, #92, #330 ) ) ;
#659 = ORIENTED_EDGE ( 'NONE', *, *, #533, .T. ) ;
#660 = EDGE_CURVE ( 'NONE', #73, #347, #345, .T. ) ;
#661 = APPROVAL_STATUS ( 'not_yet_approved' ) ;
#662 = AXIS2_PLACEMENT_3D ( 'NONE', #321, #152, #202 ) ;
#663 = COORDINATED_UNIVERSAL_TIME_OFFSET ( 6, 0, .BEHIND. ) ;
#664 = CYLINDRICAL_SURFACE ( 'NONE', #466, 0.1562499999999999400 ) ;
#665 = TOROIDAL_SURFACE ( 'NONE', #213, 0.09625000000000000200, 0.002500000000000000500 ) ;
#666 = DIRECTION ( 'NONE',  ( -0.0000000000000000000, -1.000000000000000000, -1.836970198721029900E-016 ) ) ;
#667 = ORIENTED_EDGE ( 'NONE', *, *, #679, .F. ) ;
#668 =( LENGTH_UNIT ( ) NAMED_UNIT ( * ) SI_UNIT ( $, .METRE. ) );
#669 = CALENDAR_DATE ( 2024, 22, 2 ) ;
#670 = CC_DESIGN_APPROVAL ( #622, ( #291 ) ) ;
#671 = CIRCLE ( 'NONE', #24, 0.09374999999999998600 ) ;
#672 = EDGE_LOOP ( 'NONE', ( #365, #459 ) ) ;
#673 = DIRECTION ( 'NONE',  ( 0.0000000000000000000, 1.000000000000000000, 1.836970198721029900E-016 ) ) ;
#674 = ORIENTED_EDGE ( 'NONE', *, *, #99, .F. ) ;
#675 = EDGE_CURVE ( 'NONE', #415, #294, #536, .T. ) ;
#676 = EDGE_CURVE ( 'NONE', #640, #110, #254, .T. ) ;
#677 = DIRECTION ( 'NONE',  ( 0.0000000000000000000, 1.836970198721029900E-016, -1.000000000000000000 ) ) ;
#678 = DIRECTION ( 'NONE',  ( 0.0000000000000000000, 1.000000000000000000, 1.836970198721029900E-016 ) ) ;
#679 = EDGE_CURVE ( 'NONE', #110, #640, #481, .T. ) ;
#680 = DATE_AND_TIME ( #424, #232 ) ;
#681 = DIRECTION ( 'NONE',  ( 0.0000000000000000000, 1.836970198721029900E-016, -1.000000000000000000 ) ) ;
#682 = ADVANCED_FACE ( 'NONE', ( #568 ), #333, .F. ) ;
#683 = FACE_OUTER_BOUND ( 'NONE', #302, .T. ) ;
#684 = DIRECTION ( 'NONE',  ( 0.0000000000000000000, -1.974354333573134400E-016, 1.000000000000000000 ) ) ;
#685 = LINE ( 'NONE', #531, #89 ) ;
#686 = ORIENTED_EDGE ( 'NONE', *, *, #307, .F. ) ;
#687 = DIRECTION ( 'NONE',  ( 0.0000000000000000000, 1.836970198721029900E-016, -1.000000000000000000 ) ) ;
#688 = CIRCLE ( 'NONE', #48, 0.1624999999999999500 ) ;
#689 = ORIENTED_EDGE ( 'NONE', *, *, #95, .F. ) ;
#690 = DIRECTION ( 'NONE',  ( 0.0000000000000000000, 1.773927268613157900E-016, -1.000000000000000000 ) ) ;
#691 = ORIENTED_EDGE ( 'NONE', *, *, #644, .T. ) ;
#692 = DIRECTION ( 'NONE',  ( 0.0000000000000000000, 1.000000000000000000, 1.836970198721029900E-016 ) ) ;
#693 = DIRECTION ( 'NONE',  ( -0.0000000000000000000, -1.000000000000000000, -1.836970198721029900E-016 ) ) ;
#694 = CARTESIAN_POINT ( 'NONE',  ( 1.913510623667738800E-017, -0.06250000000000000000, 0.1562499999999999700 ) ) ;
#695 = EDGE_CURVE ( 'NONE', #460, #640, #647, .T. ) ;
#696 = PERSON_AND_ORGANIZATION ( #299, #18 ) ;
#697 = LENGTH_MEASURE_WITH_UNIT ( LENGTH_MEASURE( 0.02539999999999999900 ), #668 );
#698 = CARTESIAN_POINT ( 'NONE',  ( 1.178722544179327200E-017, 0.1250000000000000000, 0.09625000000000003000 ) ) ;
#699 = FACE_OUTER_BOUND ( 'NONE', #311, .T. ) ;
#700 = CARTESIAN_POINT ( 'NONE',  ( 0.0000000000000000000, -0.05624999999999996700, -2.678914873134832300E-018 ) ) ;
#701 = CC_DESIGN_PERSON_AND_ORGANIZATION_ASSIGNMENT ( #603, #162, ( #575 ) ) ;
#702 = EDGE_LOOP ( 'NONE', ( #689, #21, #517, #620 ) ) ;
#703 = DIRECTION ( 'NONE',  ( 0.0000000000000000000, -1.974354333573134400E-016, 1.000000000000000000 ) ) ;
#704 = DIRECTION ( 'NONE',  ( 1.000000000000000000, 2.249639673992786700E-032, -1.224646799147353200E-016 ) ) ;
#705 = LOCAL_TIME ( 9, 25, 23.00000000000000000, #663 ) ;
#706 = CIRCLE ( 'NONE', #140, 0.06250000000000001400 ) ;
#707 = EDGE_CURVE ( 'NONE', #637, #102, #168, .T. ) ;
#708 = ORIENTED_EDGE ( 'NONE', *, *, #660, .F. ) ;
#709 = EDGE_LOOP ( 'NONE', ( #256, #129 ) ) ;
#710 = CARTESIAN_POINT ( 'NONE',  ( 1.990051048614448600E-017, 0.06250000000000005600, -0.1624999999999998900 ) ) ;
#711 = CC_DESIGN_PERSON_AND_ORGANIZATION_ASSIGNMENT ( #456, #550, ( #236 ) ) ;
#712 = EDGE_CURVE ( 'NONE', #223, #460, #137, .T. ) ;
#713 = CARTESIAN_POINT ( 'NONE',  ( 0.0000000000000000000, -0.06249999999999993800, -0.1624999999999999500 ) ) ;
#714 = EDGE_CURVE ( 'NONE', #446, #347, #98, .T. ) ;
#715 = APPROVAL_ROLE ( '' ) ;
#716 = CIRCLE ( 'NONE', #368, 0.1624999999999999500 ) ;
#717 = ORIENTED_EDGE ( 'NONE', *, *, #36, .T. ) ;
#718 = VERTEX_POINT ( 'NONE', #498 ) ;
#719 = AXIS2_PLACEMENT_3D ( 'NONE', #296, #673, #237 ) ;
#720 = DIRECTION ( 'NONE',  ( 1.000000000000000000, 0.0000000000000000000, 0.0000000000000000000 ) ) ;
#721 = APPLICATION_PROTOCOL_DEFINITION ( 'international standard', 'config_control_design', 1994, #613 ) ;
#722 = APPROVAL_STATUS ( 'not_yet_approved' ) ;
#723 = AXIS2_PLACEMENT_3D ( 'NONE', #249, #522, #643 ) ;
#724 = FACE_OUTER_BOUND ( 'NONE', #469, .T. ) ;
#725 = FACE_OUTER_BOUND ( 'NONE', #163, .T. ) ;
#726 = DATE_TIME_ROLE ( 'creation_date' ) ;
#727 = ORIENTED_EDGE ( 'NONE', *, *, #634, .T. ) ;
#728 = EDGE_LOOP ( 'NONE', ( #606, #416, #210, #612 ) ) ;
ENDSEC;
END-ISO-10303-21;
